<svg xmlns="http://www.w3.org/2000/svg" xmlns:xlink="http://www.w3.org/1999/xlink" preserveAspectRatio="xMidYMid" width="16" height="13" viewBox="0 0 16 13">
  <defs>
    <style>
      .cls-1 {
        fill: #fff;
        fill-rule: evenodd;
      }
    </style>
  </defs>
  <path d="M15.992,10.889 C15.992,12.051 15.043,12.997 13.876,12.997 L2.116,12.997 C0.949,12.997 -0.000,12.051 -0.000,10.889 L-0.000,2.105 C-0.000,2.102 0.000,2.099 0.000,2.098 C0.000,2.094 0.000,2.091 0.000,2.088 C0.010,0.933 0.955,-0.004 2.116,-0.004 L13.876,-0.004 C15.037,-0.004 15.982,0.933 15.991,2.088 C15.992,2.091 15.992,2.094 15.992,2.098 C15.992,2.099 15.992,2.102 15.992,2.105 L15.992,10.889 ZM2.116,11.710 L13.876,11.710 C14.330,11.710 14.700,11.343 14.700,10.889 L14.700,3.340 L8.366,7.757 C8.255,7.833 8.126,7.872 7.996,7.872 C7.866,7.872 7.737,7.833 7.625,7.757 L1.292,3.339 L1.292,10.889 C1.292,11.343 1.662,11.710 2.116,11.710 ZM13.876,1.285 L2.116,1.285 C1.766,1.285 1.468,1.503 1.348,1.808 L7.996,6.444 L14.644,1.808 C14.524,1.503 14.226,1.285 13.876,1.285 Z" class="cls-1"/>
</svg>
